<svg xmlns:xlink="http://www.w3.org/1999/xlink" version="1.1" style="font-family:'lucida grande', 'lucida sans unicode', arial, helvetica, sans-serif;font-size:12px;" xmlns="http://www.w3.org/2000/svg" width="600" height="400"><desc>Created with Highstock 2.1.5</desc><defs><clipPath id="highcharts-7"><rect x="0" y="0" width="527" height="280"></rect></clipPath></defs><rect x="0" y="0" width="600" height="400" strokeWidth="0" fill="#FFFFFF" class=" highcharts-background"></rect><g class="highcharts-grid" ></g><g class="highcharts-grid" ><path fill="none" d="M 63 327.5 L 590 327.5" stroke="#D8D8D8" stroke-width="1"  opacity="1"></path><path fill="none" d="M 63 271.5 L 590 271.5" stroke="#D8D8D8" stroke-width="1"  opacity="1"></path><path fill="none" d="M 63 215.5 L 590 215.5" stroke="#D8D8D8" stroke-width="1"  opacity="1"></path><path fill="none" d="M 63 159.5 L 590 159.5" stroke="#D8D8D8" stroke-width="1"  opacity="1"></path><path fill="none" d="M 63 103.5 L 590 103.5" stroke="#D8D8D8" stroke-width="1"  opacity="1"></path><path fill="none" d="M 63 46.5 L 590 46.5" stroke="#D8D8D8" stroke-width="1"  opacity="1"></path></g><g class="highcharts-axis" ><path fill="none" d="M 67.5 327 L 67.5 337" stroke="#C0D0E0" stroke-width="1" opacity="1"></path><path fill="none" d="M 153.5 327 L 153.5 337" stroke="#C0D0E0" stroke-width="1" opacity="1"></path><path fill="none" d="M 239.5 327 L 239.5 337" stroke="#C0D0E0" stroke-width="1" opacity="1"></path><path fill="none" d="M 326.5 327 L 326.5 337" stroke="#C0D0E0" stroke-width="1" opacity="1"></path><path fill="none" d="M 412.5 327 L 412.5 337" stroke="#C0D0E0" stroke-width="1" opacity="1"></path><path fill="none" d="M 498.5 327 L 498.5 337" stroke="#C0D0E0" stroke-width="1" opacity="1"></path><path fill="none" d="M 584.5 327 L 584.5 337" stroke="#C0D0E0" stroke-width="1" opacity="1"></path><path fill="none" d="M 63 327.5 L 590 327.5" stroke="#C0D0E0" stroke-width="1"  visibility="visible"></path></g><g class="highcharts-axis" ><text x="24.078125"  text-anchor="middle" transform="translate(0,0) rotate(270 24.078125 187)" class=" highcharts-yaxis-title" style="color:#707070;fill:#707070;" visibility="visible" y="187">Values</text></g><g class="highcharts-series-group" ><g class="highcharts-series" visibility="visible"  transform="translate(63,47) scale(1 1)" clip-path="url(#highcharts-7)"><path fill="none" d="M 5.166666666666668 252 L 177.38888888888894 224 L 349.61111111111114 168 L 521.8333333333334 28" stroke="#2b908f" stroke-width="2"  stroke-linejoin="round" stroke-linecap="round"></path></g><g class="highcharts-markers" visibility="visible"  transform="translate(63,47) scale(1 1)" clip-path="none"><path fill="#2b908f" d="M 521 24 C 526.328 24 526.328 32 521 32 C 515.672 32 515.672 24 521 24 Z"></path><path fill="#2b908f" d="M 349 164 C 354.328 164 354.328 172 349 172 C 343.672 172 343.672 164 349 164 Z"></path><path fill="#2b908f" d="M 177 220 C 182.328 220 182.328 228 177 228 C 171.672 228 171.672 220 177 220 Z"></path><path fill="#2b908f" d="M 5 248 C 10.328 248 10.328 256 5 256 C -0.32800000000000007 256 -0.32800000000000007 248 5 248 Z"></path></g><g class="highcharts-series" visibility="visible"  transform="translate(63,47) scale(1 1)" clip-path="url(#highcharts-7)"><path fill="none" d="M 5.166666666666668 28 L 177.38888888888894 168 L 349.61111111111114 224 L 521.8333333333334 252" stroke="#434348" stroke-width="2"  stroke-linejoin="round" stroke-linecap="round"></path></g><g class="highcharts-markers" visibility="visible"  transform="translate(63,47) scale(1 1)" clip-path="none"><path fill="#434348" d="M 521 248 L 525 252 521 256 517 252 Z"></path><path fill="#434348" d="M 349 220 L 353 224 349 228 345 224 Z"></path><path fill="#434348" d="M 177 164 L 181 168 177 172 173 168 Z"></path><path fill="#434348" d="M 5 24 L 9 28 5 32 1 28 Z"></path></g></g><text x="300" text-anchor="middle" class="highcharts-title"  style="color:#333333;font-size:18px;fill:#333333;width:536px;" y="24"><tspan>Chart title</tspan></text><g class="highcharts-legend"  transform="translate(173,360)"><g ><g><g class="highcharts-legend-item"  transform="translate(8,3)"><path fill="none" d="M 0 11 L 16 11" stroke="#2b908f" stroke-width="2"></path><path fill="#2b908f" d="M 8 7 C 13.328 7 13.328 15 8 15 C 2.6719999999999997 15 2.6719999999999997 7 8 7 Z"></path><text x="21" style="color:#333333;font-size:12px;font-weight:bold;cursor:pointer;fill:#333333;" text-anchor="start"  y="15"><tspan>temperature 1</tspan></text></g><g class="highcharts-legend-item"  transform="translate(137.125,3)"><path fill="none" d="M 0 11 L 16 11" stroke="#434348" stroke-width="2"></path><path fill="#434348" d="M 8 7 L 12 11 8 15 4 11 Z"></path><text x="21" y="15" style="color:#333333;font-size:12px;font-weight:bold;cursor:pointer;fill:#333333;" text-anchor="start" ><tspan>temperature 2</tspan></text></g></g></g></g><g class="highcharts-axis-labels highcharts-xaxis-labels" ><text x="68.16666666666667" style="color:#606060;cursor:default;font-size:11px;fill:#606060;width:65px;text-overflow:clip;" text-anchor="middle" transform="translate(0,0)" y="346" opacity="1">0</text><text x="154.2777777777778" style="color:#606060;cursor:default;font-size:11px;fill:#606060;width:65px;text-overflow:clip;" text-anchor="middle" transform="translate(0,0)" y="346" opacity="1">0.5</text><text x="240.38888888888894" style="color:#606060;cursor:default;font-size:11px;fill:#606060;width:65px;text-overflow:clip;" text-anchor="middle" transform="translate(0,0)" y="346" opacity="1">1</text><text x="326.50000000000006" style="color:#606060;cursor:default;font-size:11px;fill:#606060;width:65px;text-overflow:clip;" text-anchor="middle" transform="translate(0,0)" y="346" opacity="1">1.5</text><text x="412.61111111111114" style="color:#606060;cursor:default;font-size:11px;fill:#606060;width:65px;text-overflow:clip;" text-anchor="middle" transform="translate(0,0)" y="346" opacity="1">2</text><text x="498.7222222222223" style="color:#606060;cursor:default;font-size:11px;fill:#606060;width:65px;text-overflow:clip;" text-anchor="middle" transform="translate(0,0)" y="346" opacity="1">2.5</text><text x="584.8333333333334" style="color:#606060;cursor:default;font-size:11px;fill:#606060;width:65px;text-overflow:clip;" text-anchor="middle" transform="translate(0,0)" y="346" opacity="1">3</text></g><g class="highcharts-axis-labels highcharts-yaxis-labels" ><text x="48" style="color:#606060;cursor:default;font-size:11px;fill:#606060;width:188px;text-overflow:clip;" text-anchor="end" transform="translate(0,0)" y="332" opacity="1">0</text><text x="48" style="color:#606060;cursor:default;font-size:11px;fill:#606060;width:188px;text-overflow:clip;" text-anchor="end" transform="translate(0,0)" y="276" opacity="1">2</text><text x="48" style="color:#606060;cursor:default;font-size:11px;fill:#606060;width:188px;text-overflow:clip;" text-anchor="end" transform="translate(0,0)" y="220" opacity="1">4</text><text x="48" style="color:#606060;cursor:default;font-size:11px;fill:#606060;width:188px;text-overflow:clip;" text-anchor="end" transform="translate(0,0)" y="164" opacity="1">6</text><text x="48" style="color:#606060;cursor:default;font-size:11px;fill:#606060;width:188px;text-overflow:clip;" text-anchor="end" transform="translate(0,0)" y="108" opacity="1">8</text><text x="48" style="color:#606060;cursor:default;font-size:11px;fill:#606060;width:188px;text-overflow:clip;" text-anchor="end" transform="translate(0,0)" y="52" opacity="1">10</text></g><g class="highcharts-tooltip"  style="cursor:default;padding:0;white-space:nowrap;" transform="translate(0,-9999)"><path fill="none" d="M 3 0 L 13 0 C 16 0 16 0 16 3 L 16 13 C 16 16 16 16 13 16 L 3 16 C 0 16 0 16 0 13 L 0 3 C 0 0 0 0 3 0"  stroke="black" stroke-opacity="0.049999999999999996" stroke-width="5" transform="translate(1, 1)"></path><path fill="none" d="M 3 0 L 13 0 C 16 0 16 0 16 3 L 16 13 C 16 16 16 16 13 16 L 3 16 C 0 16 0 16 0 13 L 0 3 C 0 0 0 0 3 0"  stroke="black" stroke-opacity="0.09999999999999999" stroke-width="3" transform="translate(1, 1)"></path><path fill="none" d="M 3 0 L 13 0 C 16 0 16 0 16 3 L 16 13 C 16 16 16 16 13 16 L 3 16 C 0 16 0 16 0 13 L 0 3 C 0 0 0 0 3 0"  stroke="black" stroke-opacity="0.15" stroke-width="1" transform="translate(1, 1)"></path><path fill="rgb(249, 249, 249)" fill-opacity=" .85" d="M 3 0 L 13 0 C 16 0 16 0 16 3 L 16 13 C 16 16 16 16 13 16 L 3 16 C 0 16 0 16 0 13 L 0 3 C 0 0 0 0 3 0"></path><text x="8"  style="font-size:12px;color:#333333;fill:#333333;" transform="translate(0,20)"></text></g><text x="590" text-anchor="end"  style="cursor:pointer;color:#909090;font-size:9px;fill:#909090;" y="395">Highcharts.com</text></svg>